#!OML:ASF X:\für Bonn\!DataBase\2005_08_11_Bastian_Final\c3d\Bastian.ASF
:FULLY-SPECIFIED
:DEGREES
94
root -6.59648 16.4584 -0.502382 165.344 -46.4768 -179.757
lowerback 16.9944 -1.78904 -4.22734
upperback 2.38224 -3.33169 0.467451
thorax -6.69394 -1.61053 3.6482
lowerneck 5.53028 -17.7546 -9.52547
upperneck -10.9502 -23.8498 16.6633
head -0.945144 -12.4419 6.35809
rclavicle 9.42014e-014 2.70534e-014
rhumerus -336.393 -9.25389 -380.47
rradius 101.935
rwrist 3.33819
rhand -61.4103 774.286
rfingers 7.12502
rthumb -33.4934 27.3908
lclavicle 9.42014e-014 2.70534e-014
lhumerus 88.0289 8.85964 40.2525
lradius 73.1177
lwrist -125.367
lhand -9.81958 33.0972
lfingers 7.12502
lthumb 16.1574 62.4438
rfemur -10.4946 -6.28689 7.96599
rtibia 56.7047
rfoot -16.8878 6.55232
rtoes -7.6761
lfemur 15.0105 -8.65211 -10.6135
ltibia 39.1484
lfoot -14.2776 -20.111
ltoes -21.7546
95
root -6.63291 16.7766 -0.645972 165.779 -47.2062 -179.958
lowerback 15.5482 -2.01707 -4.63896
upperback 2.14293 -3.62271 0.192554
thorax -6.12555 -1.74523 3.57166
lowerneck 5.90034 -17.6867 -9.60348
upperneck -9.98945 -23.8563 16.4854
head -0.733855 -12.4215 6.29432
rclavicle -5.86446e-014 -6.95746e-015
rhumerus -337.276 -9.09648 -380.442
rradius 102.742
rwrist 3.18451
rhand -60.9706 775.089
rfingers 7.12502
rthumb -33.0753 28.1051
lclavicle -5.86446e-014 -6.95746e-015
lhumerus 88.2563 7.95288 40.9442
lradius 73.7084
lwrist -127.634
lhand -9.80155 33.925
lfingers 7.12502
lthumb 16.1747 63.2701
rfemur -8.18938 -5.61672 8.29008
rtibia 52.738
rfoot -14.4344 5.91803
rtoes -6.11506
lfemur 16.5757 -8.95021 -10.7295
ltibia 34.8079
lfoot -9.31506 -19.0001
ltoes -23.172
96
root -6.66938 17.1099 -0.788898 166.234 -47.9612 -180.091
lowerback 14.0274 -2.2747 -5.0798
upperback 1.89553 -3.94025 -0.0561268
thorax -5.51184 -1.89674 3.53103
lowerneck 6.20634 -17.5974 -9.60436
upperneck -8.98084 -23.8376 16.2516
head -0.518043 -12.3894 6.20168
rclavicle 2.70844e-015 -9.93923e-016
rhumerus -338.277 -8.84219 -380.654
rradius 103.65
rwrist 3.42587
rhand -60.6383 776.299
rfingers 7.12502
rthumb -32.7592 29.2483
lclavicle 2.70844e-015 -9.93923e-016
lhumerus 88.5502 6.99474 41.7222
lradius 74.131
lwrist -129.82
lhand -9.78207 34.9764
lfingers 7.12502
lthumb 16.1935 64.32
rfemur -5.90563 -4.59464 8.83361
rtibia 48.6066
rfoot -11.7846 4.68943
rtoes -6.17736
lfemur 17.8065 -8.96881 -10.7006
ltibia 30.8674
lfoot -4.55562 -17.5419
ltoes -27.101
97
root -6.70412 17.451 -0.927761 166.828 -48.745 -180.226
lowerback 12.4455 -2.54288 -5.52367
upperback 1.59979 -4.25598 -0.312037
thorax -4.90894 -2.04875 3.47113
lowerneck 6.4571 -17.5382 -9.50663
upperneck -7.99793 -23.8554 15.9606
head -0.315591 -12.378 6.07862
rclavicle -8.60738e-014 2.90226e-014
rhumerus -339.52 -8.55685 -380.932
rradius 104.727
rwrist 3.94235
rhand -60.4137 777.827
rfingers 7.12502
rthumb -32.5456 30.7319
lclavicle -8.60738e-014 2.90226e-014
lhumerus 88.9309 5.98602 42.602
lradius 74.4121
lwrist -131.729
lhand -9.86707 36.0503
lfingers 7.12502
lthumb 16.1116 65.4006
rfemur -3.85482 -3.17344 9.5526
rtibia 44.4991
rfoot -8.81224 3.00555
rtoes -6.89377
lfemur 18.5427 -8.69772 -10.5723
ltibia 27.5964
lfoot 0.0929862 -15.9922
ltoes -31.0156
98
root -6.7376 17.8008 -1.06258 167.537 -49.553 -180.255
lowerback 10.7112 -2.84934 -5.92372
upperback 1.27203 -4.59234 -0.543681
thorax -4.24761 -2.21587 3.39404
lowerneck 6.57193 -17.4756 -9.30595
upperneck -6.96696 -23.8638 15.6256
head -0.0961479 -12.3612 5.91825
rclavicle 1.17059e-013 2.22639e-014
rhumerus -340.827 -8.30322 -381.277
rradius 105.837
rwrist 4.79802
rhand -60.4167 779.506
rfingers 7.12502
rthumb -32.5485 32.4118
lclavicle 1.17059e-013 2.22639e-014
lhumerus 89.2557 4.88459 43.5737
lradius 74.5725
lwrist -133.4
lhand -10.0133 37.1193
lfingers 7.12502
lthumb 15.9708 66.4809
rfemur -2.20522 -1.27192 10.5216
rtibia 40.6472
rfoot -5.46073 1.06411
rtoes -8.47988
lfemur 18.553 -8.04179 -10.2086
ltibia 25.3612
lfoot 4.57821 -14.1631
ltoes -33.6254
99
root -6.77169 18.1594 -1.19536 168.353 -50.3735 -180.255
lowerback 8.85904 -3.17479 -6.35858
upperback 0.920473 -4.93536 -0.737303
thorax -3.53197 -2.39047 3.35446
lowerneck 6.55612 -17.4254 -9.09013
upperneck -5.91055 -23.8843 15.2215
head 0.14257 -12.3454 5.72361
rclavicle 1.82136e-013 1.47101e-014
rhumerus -342.135 -8.08059 -381.572
rradius 106.899
rwrist 5.84429
rhand -60.588 781.29
rfingers 7.12502
rthumb -32.7114 34.2295
lclavicle 1.82136e-013 1.47101e-014
lhumerus 89.5331 3.7487 44.5687
lradius 74.6662
lwrist -134.662
lhand -10.2235 38.0829
lfingers 7.12502
lthumb 15.7684 67.4607
rfemur -0.910138 1.06617 11.6458
rtibia 37.1973
rfoot -1.9314 -1.36355
rtoes -11.0039
lfemur 17.922 -7.1001 -9.77312
ltibia 24.2829
lfoot 8.37646 -11.8369
ltoes -36.7683
100
root -6.80577 18.5161 -1.32376 169.217 -51.1733 -180.22
lowerback 6.99095 -3.50702 -6.69477
upperback 0.538279 -5.26875 -0.96866
thorax -2.84631 -2.56401 3.20481
lowerneck 6.4145 -17.401 -8.89233
upperneck -4.811 -23.9453 14.8418
head 0.424281 -12.3487 5.51986
rclavicle -2.62893e-014 9.93923e-015
rhumerus -343.315 -7.91952 -381.808
rradius 107.852
rwrist 6.94888
rhand -60.8701 782.75
rfingers 7.12502
rthumb -32.9798 35.7458
lclavicle -2.62893e-014 9.93923e-015
lhumerus 89.8652 2.71534 45.3478
lradius 74.6844
lwrist -135.278
lhand -10.4278 38.7819
lfingers 7.12502
lthumb 15.5717 68.175
rfemur 0.095807 4.14032 12.9924
rtibia 34.265
rfoot 1.20999 -4.78456
rtoes -14.0179
lfemur 16.7801 -5.66818 -9.18252
ltibia 24.3065
lfoot 11.3191 -9.32832
ltoes -39.7774
101
root -6.84028 18.8722 -1.44886 170.008 -52.0027 -180.092
lowerback 5.28419 -3.86225 -6.89196
upperback 0.111786 -5.63375 -1.23963
thorax -2.30734 -2.75237 2.94003
lowerneck 6.27452 -17.3565 -8.70944
upperneck -3.6853 -23.9902 14.4765
head 0.715807 -12.3468 5.32284
rclavicle 6.26172e-015 -4.37326e-015
rhumerus -344.264 -7.78683 -381.9
rradius 108.583
rwrist 7.96365
rhand -61.2132 784.008
rfingers 7.12502
rthumb -33.306 37.0726
lclavicle 6.26172e-015 -4.37326e-015
lhumerus 90.2558 1.68939 45.9967
lradius 74.5102
lwrist -135.487
lhand -10.5763 39.2759
lfingers 7.12502
lthumb 15.4286 68.6801
rfemur 0.952049 7.84203 14.5871
rtibia 31.9191
rfoot 3.95405 -9.02227
rtoes -17.3933
lfemur 15.3167 -3.45717 -8.32792
ltibia 25.1748
lfoot 13.3894 -7.0981
ltoes -41.4684
